<svg xmlns="http://www.w3.org/2000/svg" xmlns:xlink="http://www.w3.org/1999/xlink" width="500" zoomAndPan="magnify" viewBox="0 0 375 374.999991" height="500" preserveAspectRatio="xMidYMid meet" version="1.2"><defs><clipPath id="0f30e46be8"><path d="M 26.046875 11.144531 L 364.878906 11.144531 L 364.878906 349.976562 L 26.046875 349.976562 Z M 26.046875 11.144531 "/></clipPath><clipPath id="d9c28e0071"><path d="M 63.546875 11.144531 L 327.378906 11.144531 C 348.089844 11.144531 364.878906 27.933594 364.878906 48.644531 L 364.878906 312.476562 C 364.878906 333.1875 348.089844 349.976562 327.378906 349.976562 L 63.546875 349.976562 C 42.835938 349.976562 26.046875 333.1875 26.046875 312.476562 L 26.046875 48.644531 C 26.046875 27.933594 42.835938 11.144531 63.546875 11.144531 Z M 63.546875 11.144531 "/></clipPath><clipPath id="c4e3832514"><path d="M 0.046875 0.144531 L 338.878906 0.144531 L 338.878906 338.976562 L 0.046875 338.976562 Z M 0.046875 0.144531 "/></clipPath><clipPath id="f6333be6cb"><path d="M 37.546875 0.144531 L 301.378906 0.144531 C 322.089844 0.144531 338.878906 16.933594 338.878906 37.644531 L 338.878906 301.476562 C 338.878906 322.1875 322.089844 338.976562 301.378906 338.976562 L 37.546875 338.976562 C 16.835938 338.976562 0.046875 322.1875 0.046875 301.476562 L 0.046875 37.644531 C 0.046875 16.933594 16.835938 0.144531 37.546875 0.144531 Z M 37.546875 0.144531 "/></clipPath><clipPath id="ab7e84caec"><rect x="0" width="339" y="0" height="339"/></clipPath><clipPath id="bbc77fc467"><path d="M 10.46875 25.367188 L 349.300781 25.367188 L 349.300781 364.203125 L 10.46875 364.203125 Z M 10.46875 25.367188 "/></clipPath><clipPath id="12dc107dff"><path d="M 47.96875 25.367188 L 311.800781 25.367188 C 332.511719 25.367188 349.300781 42.15625 349.300781 62.867188 L 349.300781 326.703125 C 349.300781 347.414062 332.511719 364.203125 311.800781 364.203125 L 47.96875 364.203125 C 27.257812 364.203125 10.46875 347.414062 10.46875 326.703125 L 10.46875 62.867188 C 10.46875 42.15625 27.257812 25.367188 47.96875 25.367188 Z M 47.96875 25.367188 "/></clipPath><clipPath id="86ab2b10b5"><path d="M 0.46875 0.367188 L 339.300781 0.367188 L 339.300781 339.203125 L 0.46875 339.203125 Z M 0.46875 0.367188 "/></clipPath><clipPath id="f3e473bcd0"><path d="M 37.96875 0.367188 L 301.800781 0.367188 C 322.511719 0.367188 339.300781 17.15625 339.300781 37.867188 L 339.300781 301.703125 C 339.300781 322.414062 322.511719 339.203125 301.800781 339.203125 L 37.96875 339.203125 C 17.257812 339.203125 0.46875 322.414062 0.46875 301.703125 L 0.46875 37.867188 C 0.46875 17.15625 17.257812 0.367188 37.96875 0.367188 Z M 37.96875 0.367188 "/></clipPath><clipPath id="fe0b91d515"><rect x="0" width="340" y="0" height="340"/></clipPath><clipPath id="f63841bbc9"><rect x="0" width="372" y="0" height="229"/></clipPath><clipPath id="39f1a14363"><rect x="0" width="375" y="0" height="229"/></clipPath></defs><g id="8cbfe4d3ba"><g clip-rule="nonzero" clip-path="url(#0f30e46be8)"><g clip-rule="nonzero" clip-path="url(#d9c28e0071)"><g transform="matrix(1,0,0,1,26,11)"><g clip-path="url(#ab7e84caec)"><g clip-rule="nonzero" clip-path="url(#c4e3832514)"><g clip-rule="nonzero" clip-path="url(#f6333be6cb)"><path style=" stroke:none;fill-rule:nonzero;fill:#f0dec6;fill-opacity:1;" d="M 0.046875 0.144531 L 338.878906 0.144531 L 338.878906 338.976562 L 0.046875 338.976562 Z M 0.046875 0.144531 "/></g></g></g></g></g></g><g clip-rule="nonzero" clip-path="url(#bbc77fc467)"><g clip-rule="nonzero" clip-path="url(#12dc107dff)"><g transform="matrix(1,0,0,1,10,25)"><g clip-path="url(#fe0b91d515)"><g clip-rule="nonzero" clip-path="url(#86ab2b10b5)"><g clip-rule="nonzero" clip-path="url(#f3e473bcd0)"><path style=" stroke:none;fill-rule:nonzero;fill:#21dad2;fill-opacity:1;" d="M 0.46875 0.367188 L 339.300781 0.367188 L 339.300781 339.203125 L 0.46875 339.203125 Z M 0.46875 0.367188 "/></g></g></g></g></g></g><g transform="matrix(1,0,0,1,0,78)"><g clip-path="url(#f63841bbc9)"><g style="fill:#f0dec6;fill-opacity:1;"><g transform="translate(263.020436, 219.22628)"><path style="stroke:none" d="M -2.1875 -61.359375 C -2.125 -59.515625 -2.28125 -57.425781 -2.65625 -55.09375 C -3.039062 -52.757812 -3.195312 -50.664062 -3.125 -48.8125 C -3.113281 -48.351562 -3.03125 -48.125 -2.875 -48.125 L -2.828125 -46.96875 C -3.703125 -45.382812 -4.523438 -44.582031 -5.296875 -44.5625 L -78.140625 -25.734375 C -94.035156 -20.679688 -112.9375 -15.445312 -134.84375 -10.03125 C -135.289062 -9.851562 -136.054688 -9.707031 -137.140625 -9.59375 C -138.222656 -9.488281 -139.222656 -9.265625 -140.140625 -8.921875 C -143.203125 -8.035156 -145.96875 -7.546875 -148.4375 -7.453125 C -150.289062 -7.390625 -151.921875 -7.5625 -153.328125 -7.96875 C -155.347656 -8.21875 -156.394531 -9.347656 -156.46875 -11.359375 L -156.5625 -14.140625 L -156.75 -19.46875 C -156.488281 -20.707031 -156.410156 -22.71875 -156.515625 -25.5 L -156.65625 -35.921875 L -156.71875 -38 L -157.484375 -59.3125 C -157.328125 -59.476562 -157.179688 -59.789062 -157.046875 -60.25 C -156.910156 -60.71875 -156.769531 -61.1875 -156.625 -61.65625 C -156.632812 -61.96875 -156.722656 -62.234375 -156.890625 -62.453125 C -157.054688 -62.679688 -157.140625 -62.875 -157.140625 -63.03125 C -157.472656 -63.632812 -157.65625 -64.25 -157.6875 -64.875 L -157.71875 -65.796875 L -157.5625 -68.125 C -157.476562 -70.132812 -157.550781 -74.378906 -157.78125 -80.859375 C -157.53125 -82.566406 -157.457031 -84.890625 -157.5625 -87.828125 C -155.738281 -88.828125 -150.15625 -90.578125 -140.8125 -93.078125 L -127.703125 -96.09375 C -124.484375 -96.820312 -119.664062 -98.070312 -113.25 -99.84375 C -113.09375 -99.851562 -112.707031 -99.90625 -112.09375 -100 C -111.476562 -100.101562 -110.710938 -100.25 -109.796875 -100.4375 C -108.566406 -100.789062 -107.21875 -101.109375 -105.75 -101.390625 C -104.289062 -101.671875 -102.722656 -102.078125 -101.046875 -102.609375 C -99.960938 -102.796875 -96.351562 -103.539062 -90.21875 -104.84375 L -71.140625 -109.453125 L -67.703125 -110.28125 L -66.765625 -110.3125 C -66.617188 -110.625 -66.238281 -110.796875 -65.625 -110.828125 L -64.25 -111.09375 L -65.640625 -111.28125 C -66.566406 -111.238281 -67.269531 -111.445312 -67.75 -111.90625 C -67.894531 -111.894531 -68.238281 -111.921875 -68.78125 -111.984375 C -69.332031 -112.046875 -70.148438 -112.128906 -71.234375 -112.234375 C -77.460938 -113.253906 -83.914062 -114.265625 -90.59375 -115.265625 L -101.5625 -117.1875 C -103.425781 -117.4375 -105.054688 -117.6875 -106.453125 -117.9375 C -107.859375 -118.195312 -109.1875 -118.382812 -110.4375 -118.5 L -113.921875 -119.0625 C -117.191406 -119.71875 -122.085938 -120.550781 -128.609375 -121.5625 L -140.75 -123.671875 C -142.457031 -123.929688 -146.34375 -124.570312 -152.40625 -125.59375 C -154.90625 -126.28125 -157.097656 -127.050781 -158.984375 -127.90625 C -159.066406 -130.050781 -159.207031 -131.742188 -159.40625 -132.984375 L -159.84375 -138.765625 L -160.25 -143.390625 L -160.546875 -145.234375 L -160.5625 -145.921875 C -160.570312 -146.234375 -160.421875 -146.394531 -160.109375 -146.40625 C -160.117188 -146.5625 -160.046875 -146.679688 -159.890625 -146.765625 C -159.742188 -146.847656 -159.671875 -146.890625 -159.671875 -146.890625 C -159.691406 -147.503906 -159.785156 -148 -159.953125 -148.375 C -160.117188 -148.757812 -160.207031 -149.03125 -160.21875 -149.1875 L -160.6875 -149.171875 L -161.203125 -163.75 L -161.265625 -165.609375 C -161.335938 -167.460938 -161.472656 -169.007812 -161.671875 -170.25 L -161.875 -176.03125 C -161.976562 -178.957031 -162.203125 -180.957031 -162.546875 -182.03125 L -162.734375 -187.359375 L -162.84375 -190.375 C -162.9375 -193.15625 -160.820312 -194.617188 -156.5 -194.765625 L -153.71875 -194.640625 C -152.175781 -194.691406 -149.847656 -194.46875 -146.734375 -193.96875 C -145.171875 -193.550781 -143.960938 -193.316406 -143.109375 -193.265625 C -142.265625 -193.222656 -141.679688 -193.132812 -141.359375 -193 C -120.835938 -189.695312 -101.613281 -185.890625 -83.6875 -181.578125 L -9.6875 -168 C -9.226562 -168.007812 -8.351562 -167.265625 -7.0625 -165.765625 L -7.046875 -165.0625 L -7.234375 -163.90625 C -7.191406 -162.832031 -6.921875 -161.835938 -6.421875 -160.921875 C -5.929688 -160.015625 -5.671875 -159.101562 -5.640625 -158.1875 C -5.566406 -156.175781 -5.71875 -154.078125 -6.09375 -151.890625 C -6.320312 -149.410156 -6.40625 -147.320312 -6.34375 -145.625 C -4.894531 -126.507812 -3.507812 -98.421875 -2.1875 -61.359375 Z M -2.1875 -61.359375 "/></g></g></g></g><g transform="matrix(1,0,0,1,0,65)"><g clip-path="url(#39f1a14363)"><g style="fill:#b7edea;fill-opacity:1;"><g transform="translate(271.184658, 218.406622)"><path style="stroke:none" d="M -2.1875 -61.359375 C -2.125 -59.515625 -2.28125 -57.425781 -2.65625 -55.09375 C -3.039062 -52.757812 -3.195312 -50.664062 -3.125 -48.8125 C -3.113281 -48.351562 -3.03125 -48.125 -2.875 -48.125 L -2.828125 -46.96875 C -3.703125 -45.382812 -4.523438 -44.582031 -5.296875 -44.5625 L -78.140625 -25.734375 C -94.035156 -20.679688 -112.9375 -15.445312 -134.84375 -10.03125 C -135.289062 -9.851562 -136.054688 -9.707031 -137.140625 -9.59375 C -138.222656 -9.488281 -139.222656 -9.265625 -140.140625 -8.921875 C -143.203125 -8.035156 -145.96875 -7.546875 -148.4375 -7.453125 C -150.289062 -7.390625 -151.921875 -7.5625 -153.328125 -7.96875 C -155.347656 -8.21875 -156.394531 -9.347656 -156.46875 -11.359375 L -156.5625 -14.140625 L -156.75 -19.46875 C -156.488281 -20.707031 -156.410156 -22.71875 -156.515625 -25.5 L -156.65625 -35.921875 L -156.71875 -38 L -157.484375 -59.3125 C -157.328125 -59.476562 -157.179688 -59.789062 -157.046875 -60.25 C -156.910156 -60.71875 -156.769531 -61.1875 -156.625 -61.65625 C -156.632812 -61.96875 -156.722656 -62.234375 -156.890625 -62.453125 C -157.054688 -62.679688 -157.140625 -62.875 -157.140625 -63.03125 C -157.472656 -63.632812 -157.65625 -64.25 -157.6875 -64.875 L -157.71875 -65.796875 L -157.5625 -68.125 C -157.476562 -70.132812 -157.550781 -74.378906 -157.78125 -80.859375 C -157.53125 -82.566406 -157.457031 -84.890625 -157.5625 -87.828125 C -155.738281 -88.828125 -150.15625 -90.578125 -140.8125 -93.078125 L -127.703125 -96.09375 C -124.484375 -96.820312 -119.664062 -98.070312 -113.25 -99.84375 C -113.09375 -99.851562 -112.707031 -99.90625 -112.09375 -100 C -111.476562 -100.101562 -110.710938 -100.25 -109.796875 -100.4375 C -108.566406 -100.789062 -107.21875 -101.109375 -105.75 -101.390625 C -104.289062 -101.671875 -102.722656 -102.078125 -101.046875 -102.609375 C -99.960938 -102.796875 -96.351562 -103.539062 -90.21875 -104.84375 L -71.140625 -109.453125 L -67.703125 -110.28125 L -66.765625 -110.3125 C -66.617188 -110.625 -66.238281 -110.796875 -65.625 -110.828125 L -64.25 -111.09375 L -65.640625 -111.28125 C -66.566406 -111.238281 -67.269531 -111.445312 -67.75 -111.90625 C -67.894531 -111.894531 -68.238281 -111.921875 -68.78125 -111.984375 C -69.332031 -112.046875 -70.148438 -112.128906 -71.234375 -112.234375 C -77.460938 -113.253906 -83.914062 -114.265625 -90.59375 -115.265625 L -101.5625 -117.1875 C -103.425781 -117.4375 -105.054688 -117.6875 -106.453125 -117.9375 C -107.859375 -118.195312 -109.1875 -118.382812 -110.4375 -118.5 L -113.921875 -119.0625 C -117.191406 -119.71875 -122.085938 -120.550781 -128.609375 -121.5625 L -140.75 -123.671875 C -142.457031 -123.929688 -146.34375 -124.570312 -152.40625 -125.59375 C -154.90625 -126.28125 -157.097656 -127.050781 -158.984375 -127.90625 C -159.066406 -130.050781 -159.207031 -131.742188 -159.40625 -132.984375 L -159.84375 -138.765625 L -160.25 -143.390625 L -160.546875 -145.234375 L -160.5625 -145.921875 C -160.570312 -146.234375 -160.421875 -146.394531 -160.109375 -146.40625 C -160.117188 -146.5625 -160.046875 -146.679688 -159.890625 -146.765625 C -159.742188 -146.847656 -159.671875 -146.890625 -159.671875 -146.890625 C -159.691406 -147.503906 -159.785156 -148 -159.953125 -148.375 C -160.117188 -148.757812 -160.207031 -149.03125 -160.21875 -149.1875 L -160.6875 -149.171875 L -161.203125 -163.75 L -161.265625 -165.609375 C -161.335938 -167.460938 -161.472656 -169.007812 -161.671875 -170.25 L -161.875 -176.03125 C -161.976562 -178.957031 -162.203125 -180.957031 -162.546875 -182.03125 L -162.734375 -187.359375 L -162.84375 -190.375 C -162.9375 -193.15625 -160.820312 -194.617188 -156.5 -194.765625 L -153.71875 -194.640625 C -152.175781 -194.691406 -149.847656 -194.46875 -146.734375 -193.96875 C -145.171875 -193.550781 -143.960938 -193.316406 -143.109375 -193.265625 C -142.265625 -193.222656 -141.679688 -193.132812 -141.359375 -193 C -120.835938 -189.695312 -101.613281 -185.890625 -83.6875 -181.578125 L -9.6875 -168 C -9.226562 -168.007812 -8.351562 -167.265625 -7.0625 -165.765625 L -7.046875 -165.0625 L -7.234375 -163.90625 C -7.191406 -162.832031 -6.921875 -161.835938 -6.421875 -160.921875 C -5.929688 -160.015625 -5.671875 -159.101562 -5.640625 -158.1875 C -5.566406 -156.175781 -5.71875 -154.078125 -6.09375 -151.890625 C -6.320312 -149.410156 -6.40625 -147.320312 -6.34375 -145.625 C -4.894531 -126.507812 -3.507812 -98.421875 -2.1875 -61.359375 Z M -2.1875 -61.359375 "/></g></g></g></g></g></svg>