<svg xmlns="http://www.w3.org/2000/svg" xmlns:xlink="http://www.w3.org/1999/xlink" width="2000" zoomAndPan="magnify" viewBox="0 0 1500 562.499983" height="750" preserveAspectRatio="xMidYMid meet" version="1.2"><defs><clipPath id="a3159ac03d"><rect x="0" width="797" y="0" height="319"/></clipPath><clipPath id="53a2e1dd2d"><path d="M 92.492188 74.976562 L 487.9375 74.976562 L 487.9375 470.421875 L 92.492188 470.421875 Z M 92.492188 74.976562 "/></clipPath><clipPath id="aeacaa0774"><path d="M 152.4375 74.976562 L 427.992188 74.976562 C 461.097656 74.976562 487.9375 101.816406 487.9375 134.921875 L 487.9375 410.476562 C 487.9375 443.582031 461.097656 470.421875 427.992188 470.421875 L 152.4375 470.421875 C 119.328125 470.421875 92.492188 443.582031 92.492188 410.476562 L 92.492188 134.921875 C 92.492188 101.816406 119.328125 74.976562 152.4375 74.976562 Z M 152.4375 74.976562 "/></clipPath><clipPath id="971e43e927"><path d="M 0.492188 0.976562 L 395.9375 0.976562 L 395.9375 396.421875 L 0.492188 396.421875 Z M 0.492188 0.976562 "/></clipPath><clipPath id="019336d2cd"><path d="M 60.4375 0.976562 L 335.992188 0.976562 C 369.097656 0.976562 395.9375 27.816406 395.9375 60.921875 L 395.9375 336.476562 C 395.9375 369.582031 369.097656 396.421875 335.992188 396.421875 L 60.4375 396.421875 C 27.328125 396.421875 0.492188 369.582031 0.492188 336.476562 L 0.492188 60.921875 C 0.492188 27.816406 27.328125 0.976562 60.4375 0.976562 Z M 60.4375 0.976562 "/></clipPath><clipPath id="200309cd7b"><rect x="0" width="396" y="0" height="397"/></clipPath><clipPath id="8981b4fe39"><path d="M 74.308594 91.578125 L 469.757812 91.578125 L 469.757812 487.023438 L 74.308594 487.023438 Z M 74.308594 91.578125 "/></clipPath><clipPath id="5033d9decb"><path d="M 134.257812 91.578125 L 409.808594 91.578125 C 442.917969 91.578125 469.757812 118.417969 469.757812 151.523438 L 469.757812 427.078125 C 469.757812 460.183594 442.917969 487.023438 409.808594 487.023438 L 134.257812 487.023438 C 101.148438 487.023438 74.308594 460.183594 74.308594 427.078125 L 74.308594 151.523438 C 74.308594 118.417969 101.148438 91.578125 134.257812 91.578125 Z M 134.257812 91.578125 "/></clipPath><clipPath id="a377453a2f"><path d="M 0.308594 0.578125 L 395.757812 0.578125 L 395.757812 396.023438 L 0.308594 396.023438 Z M 0.308594 0.578125 "/></clipPath><clipPath id="38892b2940"><path d="M 60.257812 0.578125 L 335.808594 0.578125 C 368.917969 0.578125 395.757812 27.417969 395.757812 60.523438 L 395.757812 336.078125 C 395.757812 369.183594 368.917969 396.023438 335.808594 396.023438 L 60.257812 396.023438 C 27.148438 396.023438 0.308594 369.183594 0.308594 336.078125 L 0.308594 60.523438 C 0.308594 27.417969 27.148438 0.578125 60.257812 0.578125 Z M 60.257812 0.578125 "/></clipPath><clipPath id="cd976bbe04"><rect x="0" width="396" y="0" height="397"/></clipPath><clipPath id="371e9a9956"><rect x="0" width="453" y="0" height="268"/></clipPath><clipPath id="ff017849de"><rect x="0" width="453" y="0" height="268"/></clipPath></defs><g id="91417c71ae"><g transform="matrix(1,0,0,1,556,119)"><g clip-path="url(#a3159ac03d)"><g style="fill:#ffffff;fill-opacity:1;"><g transform="translate(0.711755, 272.004677)"><path style="stroke:none" d="M 75.75 -214 L 3.859375 -214 L 86.03125 0 L 154.5 0 L 237.109375 -214 L 165.625 -214 L 120.265625 -93.296875 Z M 75.75 -214 "/></g></g><g style="fill:#ffffff;fill-opacity:1;"><g transform="translate(227.58433, 272.004677)"><path style="stroke:none" d="M 83.453125 -214 L 83.453125 0 L 14.125 0 L 14.125 -214 Z M 83.453125 -214 "/></g></g><g style="fill:#ffffff;fill-opacity:1;"><g transform="translate(311.083377, 272.004677)"><path style="stroke:none" d="M 14.125 0 L 14.125 -214.421875 L 72.765625 -214.421875 L 130.53125 -115.125 L 130.53125 -214 L 200.296875 -214 L 200.296875 0 L 141.671875 -0.421875 L 83.453125 -99.296875 L 83.453125 0 Z M 14.125 0 "/></g></g><g style="fill:#ffffff;fill-opacity:1;"><g transform="translate(510.993177, 272.004677)"><path style="stroke:none" d="M 134.8125 -89.453125 C 131.675781 -67.765625 122.832031 -56.921875 108.28125 -56.921875 C 99.4375 -56.921875 92.515625 -61.269531 87.515625 -69.96875 C 82.523438 -78.675781 80.03125 -91.019531 80.03125 -107 C 80.03125 -123.257812 82.523438 -135.738281 87.515625 -144.4375 C 92.515625 -153.144531 99.4375 -157.5 108.28125 -157.5 C 114.84375 -157.5 120.476562 -154.644531 125.1875 -148.9375 C 129.894531 -143.226562 133.101562 -135.097656 134.8125 -124.546875 L 202.015625 -135.25 C 196.585938 -161.5 185.742188 -181.753906 169.484375 -196.015625 C 153.222656 -210.285156 132.679688 -217.421875 107.859375 -217.421875 C 77.035156 -217.421875 53.28125 -207.859375 36.59375 -188.734375 C 19.90625 -169.617188 11.5625 -142.375 11.5625 -107 C 11.5625 -71.90625 19.90625 -44.726562 36.59375 -25.46875 C 53.28125 -6.207031 77.035156 3.421875 107.859375 3.421875 C 132.679688 3.421875 153.222656 -3.78125 169.484375 -18.1875 C 185.742188 -32.59375 196.585938 -52.78125 202.015625 -78.75 Z M 134.8125 -89.453125 "/></g></g><g style="fill:#ffffff;fill-opacity:1;"><g transform="translate(710.046998, 272.004677)"><path style="stroke:none" d="M 83.453125 -214 L 83.453125 0 L 14.125 0 L 14.125 -214 Z M 83.453125 -214 "/></g></g></g></g><g clip-rule="nonzero" clip-path="url(#53a2e1dd2d)"><g clip-rule="nonzero" clip-path="url(#aeacaa0774)"><g transform="matrix(1,0,0,1,92,74)"><g clip-path="url(#200309cd7b)"><g clip-rule="nonzero" clip-path="url(#971e43e927)"><g clip-rule="nonzero" clip-path="url(#019336d2cd)"><path style=" stroke:none;fill-rule:nonzero;fill:#f0dec6;fill-opacity:1;" d="M 0.492188 0.976562 L 395.9375 0.976562 L 395.9375 396.421875 L 0.492188 396.421875 Z M 0.492188 0.976562 "/></g></g></g></g></g></g><g clip-rule="nonzero" clip-path="url(#8981b4fe39)"><g clip-rule="nonzero" clip-path="url(#5033d9decb)"><g transform="matrix(1,0,0,1,74,91)"><g clip-path="url(#cd976bbe04)"><g clip-rule="nonzero" clip-path="url(#a377453a2f)"><g clip-rule="nonzero" clip-path="url(#38892b2940)"><path style=" stroke:none;fill-rule:nonzero;fill:#21dad2;fill-opacity:1;" d="M 0.308594 0.578125 L 395.757812 0.578125 L 395.757812 396.023438 L 0.308594 396.023438 Z M 0.308594 0.578125 "/></g></g></g></g></g></g><g transform="matrix(1,0,0,1,26,153)"><g clip-path="url(#371e9a9956)"><g style="fill:#f0dec6;fill-opacity:1;"><g transform="translate(325.61713, 255.857479)"><path style="stroke:none" d="M -2.546875 -71.625 C -2.472656 -69.457031 -2.660156 -67.015625 -3.109375 -64.296875 C -3.546875 -61.578125 -3.726562 -59.132812 -3.65625 -56.96875 C -3.632812 -56.425781 -3.535156 -56.160156 -3.359375 -56.171875 L -3.3125 -54.828125 C -4.320312 -52.984375 -5.28125 -52.046875 -6.1875 -52.015625 L -91.1875 -30.046875 C -109.738281 -24.148438 -131.800781 -18.035156 -157.375 -11.703125 C -157.914062 -11.503906 -158.8125 -11.335938 -160.0625 -11.203125 C -161.3125 -11.066406 -162.472656 -10.800781 -163.546875 -10.40625 C -167.128906 -9.375 -170.359375 -8.804688 -173.234375 -8.703125 C -175.398438 -8.628906 -177.304688 -8.832031 -178.953125 -9.3125 C -181.304688 -9.59375 -182.523438 -10.90625 -182.609375 -13.25 L -182.71875 -16.484375 L -182.953125 -22.703125 C -182.640625 -24.160156 -182.539062 -26.507812 -182.65625 -29.75 L -182.8125 -41.921875 L -182.90625 -44.359375 L -183.796875 -69.234375 C -183.617188 -69.421875 -183.445312 -69.785156 -183.28125 -70.328125 C -183.125 -70.878906 -182.96875 -71.425781 -182.8125 -71.96875 C -182.820312 -72.320312 -182.921875 -72.628906 -183.109375 -72.890625 C -183.296875 -73.160156 -183.390625 -73.382812 -183.390625 -73.5625 C -183.785156 -74.28125 -183.992188 -75 -184.015625 -75.71875 L -184.0625 -76.796875 L -183.890625 -79.5 C -183.785156 -81.84375 -183.867188 -86.800781 -184.140625 -94.375 C -183.859375 -96.375 -183.773438 -99.085938 -183.890625 -102.515625 C -181.765625 -103.660156 -175.25 -105.691406 -164.34375 -108.609375 L -149.0625 -112.140625 C -145.289062 -112.992188 -139.65625 -114.453125 -132.15625 -116.515625 C -131.976562 -116.523438 -131.53125 -116.585938 -130.8125 -116.703125 C -130.09375 -116.828125 -129.195312 -117 -128.125 -117.21875 C -126.695312 -117.632812 -125.128906 -118.003906 -123.421875 -118.328125 C -121.710938 -118.660156 -119.878906 -119.132812 -117.921875 -119.75 C -116.671875 -119.96875 -112.460938 -120.835938 -105.296875 -122.359375 L -83.046875 -127.75 L -79.015625 -128.703125 L -77.9375 -128.75 C -77.757812 -129.125 -77.3125 -129.320312 -76.59375 -129.34375 L -74.96875 -129.671875 L -76.609375 -129.875 C -77.691406 -129.832031 -78.515625 -130.070312 -79.078125 -130.59375 C -79.253906 -130.59375 -79.660156 -130.628906 -80.296875 -130.703125 C -80.929688 -130.773438 -81.882812 -130.875 -83.15625 -131 C -90.40625 -132.175781 -97.929688 -133.347656 -105.734375 -134.515625 L -118.53125 -136.765625 C -120.695312 -137.054688 -122.597656 -137.351562 -124.234375 -137.65625 C -125.878906 -137.957031 -127.425781 -138.171875 -128.875 -138.296875 L -132.953125 -138.953125 C -136.773438 -139.722656 -142.492188 -140.695312 -150.109375 -141.875 L -164.265625 -144.34375 C -166.253906 -144.632812 -170.789062 -145.378906 -177.875 -146.578125 C -180.789062 -147.367188 -183.351562 -148.265625 -185.5625 -149.265625 C -185.65625 -151.773438 -185.816406 -153.753906 -186.046875 -155.203125 L -186.546875 -161.953125 L -187.015625 -167.359375 L -187.359375 -169.5 L -187.390625 -170.3125 C -187.398438 -170.675781 -187.222656 -170.863281 -186.859375 -170.875 C -186.867188 -171.050781 -186.785156 -171.1875 -186.609375 -171.28125 C -186.441406 -171.375 -186.359375 -171.421875 -186.359375 -171.421875 C -186.378906 -172.148438 -186.484375 -172.734375 -186.671875 -173.171875 C -186.867188 -173.617188 -186.972656 -173.929688 -186.984375 -174.109375 L -187.53125 -174.09375 L -188.140625 -191.125 L -188.21875 -193.28125 C -188.289062 -195.445312 -188.441406 -197.25 -188.671875 -198.6875 L -188.90625 -205.421875 C -189.03125 -208.847656 -189.296875 -211.1875 -189.703125 -212.4375 L -189.921875 -218.65625 L -190.046875 -222.171875 C -190.171875 -225.410156 -187.707031 -227.117188 -182.65625 -227.296875 L -179.40625 -227.15625 C -177.601562 -227.21875 -174.882812 -226.945312 -171.25 -226.34375 C -169.425781 -225.882812 -168.019531 -225.625 -167.03125 -225.5625 C -166.039062 -225.507812 -165.359375 -225.398438 -164.984375 -225.234375 C -141.023438 -221.398438 -118.585938 -216.96875 -97.671875 -211.9375 L -11.328125 -196.0625 C -10.785156 -196.082031 -9.757812 -195.21875 -8.25 -193.46875 L -8.234375 -192.65625 L -8.4375 -191.296875 C -8.394531 -190.035156 -8.082031 -188.875 -7.5 -187.8125 C -6.925781 -186.75 -6.617188 -185.675781 -6.578125 -184.59375 C -6.492188 -182.257812 -6.675781 -179.820312 -7.125 -177.28125 C -7.394531 -174.382812 -7.492188 -171.941406 -7.421875 -169.953125 C -5.710938 -147.640625 -4.085938 -114.863281 -2.546875 -71.625 Z M -2.546875 -71.625 "/></g></g></g></g><g transform="matrix(1,0,0,1,53,137)"><g clip-path="url(#ff017849de)"><g style="fill:#b7edea;fill-opacity:1;"><g transform="translate(325.588723, 255.728886)"><path style="stroke:none" d="M -2.546875 -71.625 C -2.472656 -69.457031 -2.660156 -67.015625 -3.109375 -64.296875 C -3.546875 -61.578125 -3.726562 -59.132812 -3.65625 -56.96875 C -3.632812 -56.425781 -3.535156 -56.160156 -3.359375 -56.171875 L -3.3125 -54.828125 C -4.320312 -52.984375 -5.28125 -52.046875 -6.1875 -52.015625 L -91.1875 -30.046875 C -109.738281 -24.148438 -131.800781 -18.035156 -157.375 -11.703125 C -157.914062 -11.503906 -158.8125 -11.335938 -160.0625 -11.203125 C -161.3125 -11.066406 -162.472656 -10.800781 -163.546875 -10.40625 C -167.128906 -9.375 -170.359375 -8.804688 -173.234375 -8.703125 C -175.398438 -8.628906 -177.304688 -8.832031 -178.953125 -9.3125 C -181.304688 -9.59375 -182.523438 -10.90625 -182.609375 -13.25 L -182.71875 -16.484375 L -182.953125 -22.703125 C -182.640625 -24.160156 -182.539062 -26.507812 -182.65625 -29.75 L -182.8125 -41.921875 L -182.90625 -44.359375 L -183.796875 -69.234375 C -183.617188 -69.421875 -183.445312 -69.785156 -183.28125 -70.328125 C -183.125 -70.878906 -182.96875 -71.425781 -182.8125 -71.96875 C -182.820312 -72.320312 -182.921875 -72.628906 -183.109375 -72.890625 C -183.296875 -73.160156 -183.390625 -73.382812 -183.390625 -73.5625 C -183.785156 -74.28125 -183.992188 -75 -184.015625 -75.71875 L -184.0625 -76.796875 L -183.890625 -79.5 C -183.785156 -81.84375 -183.867188 -86.800781 -184.140625 -94.375 C -183.859375 -96.375 -183.773438 -99.085938 -183.890625 -102.515625 C -181.765625 -103.660156 -175.25 -105.691406 -164.34375 -108.609375 L -149.0625 -112.140625 C -145.289062 -112.992188 -139.65625 -114.453125 -132.15625 -116.515625 C -131.976562 -116.523438 -131.53125 -116.585938 -130.8125 -116.703125 C -130.09375 -116.828125 -129.195312 -117 -128.125 -117.21875 C -126.695312 -117.632812 -125.128906 -118.003906 -123.421875 -118.328125 C -121.710938 -118.660156 -119.878906 -119.132812 -117.921875 -119.75 C -116.671875 -119.96875 -112.460938 -120.835938 -105.296875 -122.359375 L -83.046875 -127.75 L -79.015625 -128.703125 L -77.9375 -128.75 C -77.757812 -129.125 -77.3125 -129.320312 -76.59375 -129.34375 L -74.96875 -129.671875 L -76.609375 -129.875 C -77.691406 -129.832031 -78.515625 -130.070312 -79.078125 -130.59375 C -79.253906 -130.59375 -79.660156 -130.628906 -80.296875 -130.703125 C -80.929688 -130.773438 -81.882812 -130.875 -83.15625 -131 C -90.40625 -132.175781 -97.929688 -133.347656 -105.734375 -134.515625 L -118.53125 -136.765625 C -120.695312 -137.054688 -122.597656 -137.351562 -124.234375 -137.65625 C -125.878906 -137.957031 -127.425781 -138.171875 -128.875 -138.296875 L -132.953125 -138.953125 C -136.773438 -139.722656 -142.492188 -140.695312 -150.109375 -141.875 L -164.265625 -144.34375 C -166.253906 -144.632812 -170.789062 -145.378906 -177.875 -146.578125 C -180.789062 -147.367188 -183.351562 -148.265625 -185.5625 -149.265625 C -185.65625 -151.773438 -185.816406 -153.753906 -186.046875 -155.203125 L -186.546875 -161.953125 L -187.015625 -167.359375 L -187.359375 -169.5 L -187.390625 -170.3125 C -187.398438 -170.675781 -187.222656 -170.863281 -186.859375 -170.875 C -186.867188 -171.050781 -186.785156 -171.1875 -186.609375 -171.28125 C -186.441406 -171.375 -186.359375 -171.421875 -186.359375 -171.421875 C -186.378906 -172.148438 -186.484375 -172.734375 -186.671875 -173.171875 C -186.867188 -173.617188 -186.972656 -173.929688 -186.984375 -174.109375 L -187.53125 -174.09375 L -188.140625 -191.125 L -188.21875 -193.28125 C -188.289062 -195.445312 -188.441406 -197.25 -188.671875 -198.6875 L -188.90625 -205.421875 C -189.03125 -208.847656 -189.296875 -211.1875 -189.703125 -212.4375 L -189.921875 -218.65625 L -190.046875 -222.171875 C -190.171875 -225.410156 -187.707031 -227.117188 -182.65625 -227.296875 L -179.40625 -227.15625 C -177.601562 -227.21875 -174.882812 -226.945312 -171.25 -226.34375 C -169.425781 -225.882812 -168.019531 -225.625 -167.03125 -225.5625 C -166.039062 -225.507812 -165.359375 -225.398438 -164.984375 -225.234375 C -141.023438 -221.398438 -118.585938 -216.96875 -97.671875 -211.9375 L -11.328125 -196.0625 C -10.785156 -196.082031 -9.757812 -195.21875 -8.25 -193.46875 L -8.234375 -192.65625 L -8.4375 -191.296875 C -8.394531 -190.035156 -8.082031 -188.875 -7.5 -187.8125 C -6.925781 -186.75 -6.617188 -185.675781 -6.578125 -184.59375 C -6.492188 -182.257812 -6.675781 -179.820312 -7.125 -177.28125 C -7.394531 -174.382812 -7.492188 -171.941406 -7.421875 -169.953125 C -5.710938 -147.640625 -4.085938 -114.863281 -2.546875 -71.625 Z M -2.546875 -71.625 "/></g></g></g></g></g></svg>